<svg width="55" height="55" viewBox="0 0 55 55" fill="none" xmlns="http://www.w3.org/2000/svg">
<path fill-rule="evenodd" clip-rule="evenodd" d="M21.8425 28.685C26.542 28.685 30.3517 24.8753 30.3517 20.1758C30.3517 15.4763 26.542 11.6666 21.8425 11.6666C17.143 11.6666 13.3333 15.4763 13.3333 20.1758C13.3333 24.8753 17.143 28.685 21.8425 28.685ZM25.1209 43.3458C29.7943 43.3458 34.2763 41.4893 37.5808 38.1847L47.6109 28.1547C48.9543 26.8113 48.9543 24.6332 47.6109 23.2897C46.2674 21.9463 44.0893 21.9463 42.7458 23.2897L34.219 31.8166C31.3124 34.7232 27.3702 36.3561 23.2596 36.3561H10.9948C9.0647 36.3561 7.5 37.9208 7.5 39.851C7.5 41.7811 9.0647 43.3458 10.9948 43.3458H25.1209Z" fill="#12BFA2"/>
</svg>
